<svg xmlns="http://www.w3.org/2000/svg" viewBox="0 0 600 600" role="img" aria-labelledby="title desc"><title id="title">Brain maze</title><desc id="desc">Original abstract illustration combining a brain silhouette and maze pathways.</desc><defs><linearGradient id="g" x1="0" y1="0" x2="1" y2="1"><stop stop-color="#dcecf4"/><stop offset="1" stop-color="#9fc4d8"/></linearGradient><filter id="s"><feDropShadow dx="0" dy="18" stdDeviation="18" flood-opacity=".22"/></filter></defs><g filter="url(#s)"><path d="M300 61c-68-39-153-8-176 67-49 3-86 44-84 94-34 37-25 96 18 122-7 55 35 104 91 104 25 67 107 87 156 42 50 45 132 24 157-43 57 0 98-50 90-105 43-27 51-86 17-122 3-51-35-93-85-95-23-76-110-106-179-66Z" fill="#0f2341" stroke="url(#g)" stroke-width="8"/><g fill="none" stroke="url(#g)" stroke-width="11" stroke-linecap="round" stroke-linejoin="round"><path d="M300 91v74h-60v54h-66v67h50v65h-76"/><path d="M300 91v66h76v62h65v72h-55v56h83"/><path d="M300 165v55h-50v62h50v52h-68v80"/><path d="M300 157v62h55v61h-55v55h72v82"/><path d="M174 219h-60v57h60M441 219h55v59h-55M224 351h-62v64M386 347h62v69"/><path d="M300 280h-76M300 280h86M300 335v93"/></g><circle cx="300" cy="280" r="24" fill="#d2aa32"/><path d="M300 280 407 173" stroke="#d2aa32" stroke-width="13" stroke-linecap="round"/></g></svg>
